<?xml version="1.0" standalone="no"?>
<!DOCTYPE svg PUBLIC "-//W3C//DTD SVG 20010904//EN"
 "http://www.w3.org/TR/2001/REC-SVG-20010904/DTD/svg10.dtd">
<svg version="1.0" xmlns="http://www.w3.org/2000/svg"
 width="256.000000pt" height="256.000000pt" viewBox="0 0 256.000000 256.000000"
 preserveAspectRatio="xMidYMid meet">

<g transform="translate(0.000000,256.000000) scale(0.100000,-0.100000)"
fill="#000000" stroke="none">
<path d="M1228 2458 c-46 -39 -89 -77 -96 -83 -8 -7 -34 -81 -58 -165 -24 -85
-49 -159 -55 -167 -6 -7 -9 -29 -7 -48 4 -35 3 -36 -45 -50 -27 -8 -64 -17
-84 -21 -109 -21 2 -105 185 -140 152 -29 373 -14 503 35 56 21 109 60 109 80
0 10 -38 23 -147 51 -42 11 -43 12 -43 53 0 24 -4 47 -9 53 -4 5 -23 49 -40
98 l-32 89 33 34 c17 18 37 33 44 33 7 0 27 -25 45 -56 30 -54 31 -58 14 -70
-10 -7 -22 -15 -28 -17 -21 -7 4 -25 43 -31 27 -4 45 -14 56 -31 25 -38 61
-33 117 18 45 42 47 45 36 75 -11 33 -16 35 -60 33 -24 -2 -27 3 -53 98 -16
55 -34 108 -40 117 -12 16 -240 84 -283 84 -14 0 -56 -28 -105 -72z m90 -435
l-3 -58 -58 -3 c-52 -3 -58 -1 -66 20 -4 13 -6 40 -3 61 l4 37 65 0 64 0 -3
-57z"/>
<path d="M867 1383 c-17 -17 -2 -35 63 -74 39 -23 73 -45 75 -49 3 -5 -29 -28
-70 -51 -73 -42 -93 -70 -55 -77 19 -3 181 92 193 114 12 21 3 29 -101 93 -86
52 -94 56 -105 44z"/>
<path d="M1585 1334 c-110 -67 -112 -69 -95 -89 20 -24 172 -115 192 -115 39
0 16 36 -49 75 -37 22 -68 45 -69 50 -2 6 28 28 67 50 52 30 69 45 67 59 -2
11 -7 21 -13 22 -5 2 -50 -22 -100 -52z"/>
<path d="M1197 1228 c-48 -36 -21 -121 38 -119 17 0 46 1 66 1 68 0 109 64 69
108 -11 12 -27 22 -36 22 -23 0 -30 -31 -10 -46 10 -7 15 -17 11 -23 -11 -18
-32 -12 -38 10 -7 26 -28 21 -42 -9 -5 -12 -15 -22 -22 -22 -19 0 -16 31 4 45
9 7 14 19 10 29 -8 19 -27 21 -50 4z"/>
</g>
</svg>
